<?xml version="1.0" standalone="no"?>
<!DOCTYPE svg PUBLIC "-//W3C//DTD SVG 20010904//EN"
 "http://www.w3.org/TR/2001/REC-SVG-20010904/DTD/svg10.dtd">
<svg version="1.0" xmlns="http://www.w3.org/2000/svg"
 width="1024.000000pt" height="1024.000000pt" viewBox="0 0 1024.000000 1024.000000"
 preserveAspectRatio="xMidYMid meet">

<g transform="translate(0.000000,1024.000000) scale(0.100000,-0.100000)"
fill="#000000" stroke="none">
<path d="M0 5120 l0 -5120 5120 0 5120 0 0 5120 0 5120 -5120 0 -5120 0 0
-5120z m2224 674 c3 -9 6 -168 6 -355 l0 -339 26 -11 c15 -5 35 -7 45 -4 17 6
19 0 19 -65 l0 -72 -69 4 c-55 3 -75 9 -103 30 -68 52 -72 71 -76 373 -2 149
-1 312 3 363 l7 92 68 0 c53 0 69 -4 74 -16z m1874 -241 c2 -192 5 -253 15
-253 6 0 68 59 137 130 l125 131 92 -3 91 -3 -129 -133 c-71 -72 -129 -136
-129 -140 0 -5 61 -80 136 -168 l136 -159 -87 -3 c-104 -3 -93 -11 -222 149
-48 60 -91 109 -96 109 -5 0 -21 -9 -35 -21 -26 -20 -27 -27 -32 -127 l-5
-107 -72 -3 -73 -3 0 431 0 431 73 -3 72 -3 3 -252z m3552 -97 c0 -379 -1
-376 61 -376 l30 0 -3 -62 -3 -63 -58 2 c-64 2 -105 22 -139 67 -23 31 -23 32
-26 404 l-3 372 71 0 70 0 0 -344z m372 197 l3 -88 73 -3 72 -3 0 -59 0 -59
-72 -3 -73 -3 0 -158 c0 -155 1 -159 24 -178 16 -13 39 -19 73 -19 l49 0 -3
-62 -3 -63 -52 -3 c-103 -6 -178 34 -214 113 -16 34 -19 67 -19 208 l0 167
-50 0 -50 0 0 60 0 60 50 0 50 0 0 90 0 90 70 0 69 0 3 -87z m-5141 -105 c57
-26 118 -88 138 -141 7 -17 11 -116 11 -243 l0 -215 -67 3 -68 3 -3 33 c-4 38
-11 40 -42 7 -37 -40 -98 -58 -182 -53 -122 6 -198 58 -233 159 -20 55 -19 99
4 178 10 36 22 91 26 121 7 66 36 111 88 141 61 34 86 39 182 36 72 -2 101 -8
146 -29z m768 -3 c67 -37 116 -100 131 -168 7 -31 10 -126 8 -237 l-3 -185
-72 -3 -71 -3 -4 198 c-4 229 -10 251 -81 284 -76 34 -156 17 -201 -44 -19
-26 -21 -46 -26 -230 l-5 -202 -70 0 -70 0 -3 190 c-3 210 6 271 45 328 52 75
140 108 278 104 78 -2 97 -7 144 -32z m1441 -1 c62 -35 114 -96 130 -152 5
-20 10 -128 10 -240 l0 -203 -67 3 -68 3 -3 33 -3 33 -35 -26 c-53 -41 -98
-55 -171 -55 -108 1 -190 48 -234 133 -31 60 -34 122 -11 207 11 41 23 97 26
123 15 121 109 179 281 174 80 -2 97 -6 145 -33z m1299 26 c101 -19 175 -73
212 -154 16 -36 19 -68 19 -248 l0 -208 -70 0 -70 0 0 30 c0 17 -3 30 -6 30
-3 0 -22 -13 -42 -29 -46 -36 -92 -51 -152 -51 -106 0 -195 52 -241 141 -23
46 -25 141 -4 192 8 19 20 68 26 109 16 96 30 122 84 153 66 39 155 52 244 35z
m-839 -225 c47 -118 87 -215 90 -215 6 0 97 216 141 338 l33 92 78 0 c43 0 78
-1 78 -3 0 -3 -66 -162 -84 -202 -16 -35 -39 -88 -71 -165 -66 -157 -97 -225
-108 -232 -7 -4 -38 -8 -69 -8 -49 0 -60 3 -72 23 -17 25 -256 571 -256 583 0
2 35 4 78 4 l77 -1 85 -214z m1360 18 c0 -176 2 -201 19 -229 54 -88 222 -84
268 6 9 17 13 81 13 207 0 100 3 188 6 197 5 13 22 16 76 16 l69 0 -3 -222
c-3 -206 -5 -226 -25 -263 -28 -53 -58 -79 -118 -106 -59 -27 -189 -37 -252
-20 -70 19 -135 70 -168 131 l-29 55 -4 213 -4 212 76 0 76 0 0 -197z"/>
<path d="M2643 5435 c-54 -23 -73 -66 -73 -168 0 -103 16 -148 61 -176 72 -44
156 -34 208 24 38 44 46 71 46 160 0 83 -25 133 -79 159 -42 20 -120 20 -163
1z"/>
<path d="M4845 5436 c-16 -7 -38 -22 -48 -34 -36 -40 -38 -223 -3 -276 38 -59
149 -80 215 -41 51 30 73 81 75 173 1 89 -17 132 -74 169 -38 27 -116 31 -165
9z"/>
<path d="M6223 5430 c-49 -30 -63 -66 -63 -167 0 -99 16 -142 63 -177 42 -31
132 -29 180 4 106 72 101 293 -7 344 -48 22 -133 21 -173 -4z"/>
</g>
</svg>
